<?xml version="1.0" encoding="UTF-8" standalone="no"?>
<svg width="456" height="456" viewBox="0 0 456 456" version="1.1" xmlns="http://www.w3.org/2000/svg">
    <defs>
        <linearGradient id="bg" x1="0%" y1="0%" x2="100%" y2="100%">
            <stop offset="0%" style="stop-color:#1a1a2e"/>
            <stop offset="100%" style="stop-color:#16213e"/>
        </linearGradient>
        <linearGradient id="ring" x1="0%" y1="0%" x2="100%" y2="100%">
            <stop offset="0%" style="stop-color:#6366f1"/>
            <stop offset="100%" style="stop-color:#8b5cf6"/>
        </linearGradient>
        <linearGradient id="spark" x1="0%" y1="0%" x2="100%" y2="100%">
            <stop offset="0%" style="stop-color:#60a5fa"/>
            <stop offset="100%" style="stop-color:#a78bfa"/>
        </linearGradient>
    </defs>
    <rect x="0" y="0" width="456" height="456" rx="90" fill="url(#bg)"/>
    <!-- Outer orbit ring -->
    <circle cx="228" cy="228" r="150" fill="none" stroke="url(#ring)" stroke-width="12" opacity="0.3"/>
    <!-- Stylized autopilot compass/heading indicator -->
    <circle cx="228" cy="228" r="105" fill="none" stroke="url(#ring)" stroke-width="8" opacity="0.6"/>
    <!-- Cardinal direction ticks -->
    <line x1="228" y1="78" x2="228" y2="108" stroke="#6366f1" stroke-width="6" stroke-linecap="round" opacity="0.7"/>
    <line x1="228" y1="348" x2="228" y2="378" stroke="#6366f1" stroke-width="6" stroke-linecap="round" opacity="0.7"/>
    <line x1="78" y1="228" x2="108" y2="228" stroke="#6366f1" stroke-width="6" stroke-linecap="round" opacity="0.7"/>
    <line x1="348" y1="228" x2="378" y2="228" stroke="#6366f1" stroke-width="6" stroke-linecap="round" opacity="0.7"/>
    <!-- Heading arrow (pointing up/north) -->
    <polygon points="228,110 248,185 228,170 208,185" fill="url(#spark)" opacity="0.9"/>
    <!-- Center AI node -->
    <circle cx="228" cy="228" r="38" fill="url(#ring)" opacity="0.9"/>
    <!-- Inner glow -->
    <circle cx="228" cy="228" r="22" fill="#1a1a2e" opacity="0.7"/>
    <!-- AI sparkle/star in center -->
    <path d="M228,210 L232,222 L244,228 L232,234 L228,246 L224,234 L212,228 L224,222 Z" fill="url(#spark)"/>
    <!-- Orbit dots (satellite positions) -->
    <circle cx="228" cy="78" r="8" fill="#60a5fa" opacity="0.8"/>
    <circle cx="348" cy="162" r="6" fill="#a78bfa" opacity="0.6"/>
    <circle cx="348" cy="294" r="6" fill="#a78bfa" opacity="0.6"/>
    <circle cx="108" cy="162" r="6" fill="#60a5fa" opacity="0.5"/>
    <circle cx="108" cy="294" r="6" fill="#60a5fa" opacity="0.5"/>
</svg>